<?xml version="1.0" standalone="no"?>
<!DOCTYPE svg PUBLIC "-//W3C//DTD SVG 20010904//EN"
 "http://www.w3.org/TR/2001/REC-SVG-20010904/DTD/svg10.dtd">
<svg version="1.0" xmlns="http://www.w3.org/2000/svg"
 width="30.000000pt" height="30.000000pt" viewBox="0 0 30.000000 30.000000"
 preserveAspectRatio="xMidYMid meet">

<g transform="translate(0.000000,30.000000) scale(0.100000,-0.100000)"
fill="#000000" stroke="none">
<path d="M52 248 c-16 -16 -16 -180 0 -196 16 -16 180 -16 196 0 14 14 16 98
2 98 -5 0 -10 -20 -10 -45 l0 -45 -90 0 -90 0 0 90 0 90 45 0 c25 0 45 5 45
10 0 14 -84 12 -98 -2z"/>
<path d="M190 250 c0 -5 8 -10 17 -10 12 0 4 -13 -27 -45 -57 -58 -43 -72 15
-15 32 31 45 39 45 27 0 -9 5 -17 10 -17 6 0 10 16 10 35 0 33 -2 35 -35 35
-19 0 -35 -4 -35 -10z"/>
</g>
</svg>
