<svg width="8rem" height="2rem" viewBox="0 0 84 25" fill="none" xmlns="http://www.w3.org/2000/svg">
<path d="M0.295455 24V0.727272H15.2045V4.26136H4.51136V10.5795H14.1818V14.1136H4.51136V24H0.295455ZM39.8409 12.3636C39.8409 14.8712 39.3712 17.0189 38.4318 18.8068C37.5 20.5871 36.2273 21.9508 34.6136 22.8977C33.0076 23.8447 31.1856 24.3182 29.1477 24.3182C27.1098 24.3182 25.2841 23.8447 23.6705 22.8977C22.0644 21.9432 20.7917 20.5758 19.8523 18.7955C18.9205 17.0076 18.4545 14.8636 18.4545 12.3636C18.4545 9.85606 18.9205 7.71212 19.8523 5.93182C20.7917 4.14394 22.0644 2.77651 23.6705 1.82954C25.2841 0.882575 27.1098 0.40909 29.1477 0.40909C31.1856 0.40909 33.0076 0.882575 34.6136 1.82954C36.2273 2.77651 37.5 4.14394 38.4318 5.93182C39.3712 7.71212 39.8409 9.85606 39.8409 12.3636ZM35.6023 12.3636C35.6023 10.5985 35.3258 9.10985 34.7727 7.89773C34.2273 6.67803 33.4697 5.75758 32.5 5.13636C31.5303 4.50758 30.4129 4.19318 29.1477 4.19318C27.8826 4.19318 26.7652 4.50758 25.7955 5.13636C24.8258 5.75758 24.0644 6.67803 23.5114 7.89773C22.9659 9.10985 22.6932 10.5985 22.6932 12.3636C22.6932 14.1288 22.9659 15.6212 23.5114 16.8409C24.0644 18.053 24.8258 18.9735 25.7955 19.6023C26.7652 20.2235 27.8826 20.5341 29.1477 20.5341C30.4129 20.5341 31.5303 20.2235 32.5 19.6023C33.4697 18.9735 34.2273 18.053 34.7727 16.8409C35.3258 15.6212 35.6023 14.1288 35.6023 12.3636ZM41.7727 4.26136V0.727272H60.3409V4.26136H53.1477V24H48.9659V4.26136H41.7727ZM83.6847 12.3636C83.6847 14.8712 83.215 17.0189 82.2756 18.8068C81.3438 20.5871 80.071 21.9508 78.4574 22.8977C76.8513 23.8447 75.0294 24.3182 72.9915 24.3182C70.9536 24.3182 69.1278 23.8447 67.5142 22.8977C65.9081 21.9432 64.6354 20.5758 63.696 18.7955C62.7642 17.0076 62.2983 14.8636 62.2983 12.3636C62.2983 9.85606 62.7642 7.71212 63.696 5.93182C64.6354 4.14394 65.9081 2.77651 67.5142 1.82954C69.1278 0.882575 70.9536 0.40909 72.9915 0.40909C75.0294 0.40909 76.8513 0.882575 78.4574 1.82954C80.071 2.77651 81.3438 4.14394 82.2756 5.93182C83.215 7.71212 83.6847 9.85606 83.6847 12.3636ZM79.446 12.3636C79.446 10.5985 79.1695 9.10985 78.6165 7.89773C78.071 6.67803 77.3134 5.75758 76.3438 5.13636C75.3741 4.50758 74.2566 4.19318 72.9915 4.19318C71.7263 4.19318 70.6089 4.50758 69.6392 5.13636C68.6695 5.75758 67.9081 6.67803 67.3551 7.89773C66.8097 9.10985 66.5369 10.5985 66.5369 12.3636C66.5369 14.1288 66.8097 15.6212 67.3551 16.8409C67.9081 18.053 68.6695 18.9735 69.6392 19.6023C70.6089 20.2235 71.7263 20.5341 72.9915 20.5341C74.2566 20.5341 75.3741 20.2235 76.3438 19.6023C77.3134 18.9735 78.071 18.053 78.6165 16.8409C79.1695 15.6212 79.446 14.1288 79.446 12.3636Z" fill="#00D2DF"/>
</svg>
