<svg fill="none" xmlns="http://www.w3.org/2000/svg" viewBox="0 0 842 625"><path opacity=".014" d="M187.362 530.288c-9.976 2.274-20.233-2.247-25.201-11.106L98.436 405.555a22.782 22.782 0 0 1-2.038-17.373l54.241-191.127a23.084 23.084 0 0 1 7.787-11.711L291.932 78.467c6.751-5.404 15.955-6.616 23.843-3.14l102.037 44.968a22.79 22.79 0 0 1 13.597 19.64l9.092 169.719a22.927 22.927 0 0 1-3.582 13.564L329.718 491.006a23.222 23.222 0 0 1-14.406 10.126l-127.95 29.156Z" stroke="url(#a)" stroke-width="4"/><path opacity=".029" d="M209.652 535.098c-9.813 2.762-20.252-1.204-25.677-9.756l-69.283-109.208a22.804 22.804 0 0 1-2.975-17.272l43.535-191.787a23.073 23.073 0 0 1 7.19-12.143L289.08 82.512c6.454-5.73 15.565-7.41 23.61-4.352l103.606 39.366a22.81 22.81 0 0 1 14.604 18.872l18.113 167.42a22.92 22.92 0 0 1-2.865 13.786l-97.297 171.359a23.195 23.195 0 0 1-13.887 10.865l-125.312 35.27Z" stroke="url(#b)" stroke-width="4"/><path opacity=".043" d="M231.928 539.206c-9.626 3.24-20.216-.166-26.08-8.388L131.3 426.292a22.823 22.823 0 0 1-3.908-17.121l32.909-191.867a23.064 23.064 0 0 1 6.568-12.544L286.422 87.21c6.143-6.04 15.135-8.18 23.316-5.548L414.6 115.387a22.834 22.834 0 0 1 15.568 18.054l26.917 164.657c.777 4.757.03 9.644-2.135 13.969l-87.312 174.37a23.175 23.175 0 0 1-13.329 11.578l-122.381 41.191Z" stroke="url(#c)" stroke-width="4"/><path opacity=".058" d="M254.153 542.619c-9.416 3.707-20.129.866-26.411-7.005l-79.508-99.599a22.85 22.85 0 0 1-4.834-16.92l22.395-191.38a23.06 23.06 0 0 1 5.924-12.911L283.995 92.546c5.815-6.332 14.667-8.925 22.96-6.726l105.806 28.062a22.861 22.861 0 0 1 16.487 17.189l35.476 161.445a22.938 22.938 0 0 1-1.392 14.113l-77.278 176.823a23.15 23.15 0 0 1-12.733 12.261l-119.168 46.906Z" stroke="url(#d)" stroke-width="4"/><path opacity=".072" d="M276.288 545.347c-9.185 4.161-19.99 1.888-26.671-5.611l-84.152-94.447a22.881 22.881 0 0 1-5.748-16.67l12.024-190.334a23.048 23.048 0 0 1 5.258-13.246L281.83 98.501a23.115 23.115 0 0 1 22.545-7.882l106.438 22.394a22.887 22.887 0 0 1 17.358 16.277l43.771 157.803a22.964 22.964 0 0 1-.64 14.218l-67.227 178.72a23.123 23.123 0 0 1-12.101 12.914l-115.686 52.402Z" stroke="url(#e)" stroke-width="4"/><path opacity=".087" d="M298.295 547.402c-8.931 4.6-19.799 2.897-26.857-4.211l-88.469-89.089a22.914 22.914 0 0 1-6.65-16.369l1.827-188.746a23.04 23.04 0 0 1 4.572-13.547l97.243-130.387a23.088 23.088 0 0 1 22.072-9.011l106.761 16.737a22.916 22.916 0 0 1 18.179 15.322L478.75 281.85a22.965 22.965 0 0 1 .12 14.282l-57.189 180.067a23.088 23.088 0 0 1-11.434 13.534l-111.952 57.669Z" stroke="url(#f)" stroke-width="4"/><path opacity=".101" d="M320.139 548.796c-8.657 5.026-19.559 3.892-26.971-2.806l-92.45-83.546a22.938 22.938 0 0 1-7.536-16.018l-8.17-186.631a23.026 23.026 0 0 1 3.87-13.81l89.537-133.801a23.06 23.06 0 0 1 21.542-10.115l106.778 11.109a22.943 22.943 0 0 1 18.947 14.326l59.476 149.304a22.977 22.977 0 0 1 .884 14.305l-47.193 180.871a23.063 23.063 0 0 1-10.736 14.118l-107.978 62.694Z" stroke="url(#g)" stroke-width="4"/><path opacity=".116" d="M341.784 549.544c-8.362 5.436-19.27 4.871-27.013-1.401l-96.088-77.835a22.967 22.967 0 0 1-8.402-15.621l-17.938-184.003a23.013 23.013 0 0 1 3.152-14.037l81.738-136.78a23.031 23.031 0 0 1 20.958-11.186l106.491 5.524a22.97 22.97 0 0 1 19.662 13.294l66.846 144.487a22.991 22.991 0 0 1 1.652 14.286l-37.271 181.139a23.03 23.03 0 0 1-10.006 14.667l-103.781 67.466Z" stroke="url(#h)" stroke-width="4"/><path opacity=".13" d="M363.197 549.664a23 23 0 0 1-26.983 0l-99.375-71.978a22.993 22.993 0 0 1-9.248-15.176l-27.45-180.882a23.001 23.001 0 0 1 2.419-14.226l73.872-139.322a23 23 0 0 1 20.321-12.225h105.905a23 23 0 0 1 20.321 12.225l73.872 139.322a22.994 22.994 0 0 1 2.419 14.226L471.821 462.51a23 23 0 0 1-9.248 15.176l-99.376 71.978Z" stroke="url(#i)" stroke-width="4"/><path opacity=".145" d="M384.344 549.174a23.001 23.001 0 0 1-26.882 1.395l-102.308-65.995a23.032 23.032 0 0 1-10.069-14.686L208.403 292.6a22.995 22.995 0 0 1 1.676-14.375l65.963-141.429a22.968 22.968 0 0 1 19.631-13.229l105.028-5.448a23.03 23.03 0 0 1 20.922 11.125l80.536 133.83a23.01 23.01 0 0 1 3.185 14.123l-17.759 180.111a22.97 22.97 0 0 1-8.463 15.647l-94.778 76.219Z" stroke="url(#j)" stroke-width="4"/><path opacity=".159" d="M405.193 548.095c-7.37 6.566-18.121 7.685-26.709 2.779l-104.88-59.908a23.062 23.062 0 0 1-10.864-14.15l-45.611-173.239a22.975 22.975 0 0 1 .925-14.485l58.032-143.104a22.942 22.942 0 0 1 18.894-14.195l103.865-10.806a23.058 23.058 0 0 1 21.462 9.997l86.824 128.034a23.016 23.016 0 0 1 3.946 13.978l-8.225 178.84a22.938 22.938 0 0 1-7.654 16.076l-90.005 80.183Z" stroke="url(#k)" stroke-width="4"/><path opacity=".174" d="M425.715 546.449c-7.005 6.906-17.648 8.574-26.466 4.15l-107.091-53.738a23.095 23.095 0 0 1-11.629-13.571l-54.213-168.758a22.97 22.97 0 0 1 .166-14.556l50.107-144.349a22.912 22.912 0 0 1 18.11-15.121l102.421-16.057a23.09 23.09 0 0 1 21.944 8.841l92.72 121.959a23.032 23.032 0 0 1 4.701 13.792l1.126 177.081a22.912 22.912 0 0 1-6.823 16.464l-85.073 83.863Z" stroke="url(#l)" stroke-width="4"/><path opacity=".188" d="M445.881 544.26c-6.625 7.226-17.132 9.437-26.154 5.503l-108.936-47.504a23.12 23.12 0 0 1-12.364-12.951L235.96 325.441a22.954 22.954 0 0 1-.599-14.586l42.21-145.172a22.888 22.888 0 0 1 17.28-16.004l100.708-21.188a23.114 23.114 0 0 1 22.362 7.663l98.215 115.628a23.035 23.035 0 0 1 5.446 13.565l10.27 174.85a22.883 22.883 0 0 1-5.973 16.809l-79.998 87.254Z" stroke="url(#m)" stroke-width="4"/><path opacity=".203" d="M465.664 541.552c-6.231 7.527-16.576 10.27-25.774 6.836L329.473 507.16a23.154 23.154 0 0 1-13.064-12.291l-70.355-158.59a22.95 22.95 0 0 1-1.365-14.576l34.363-145.576a22.86 22.86 0 0 1 16.408-16.843l98.732-26.186c8.17-2.167 16.893.316 22.718 6.465L520.206 248.63a23.059 23.059 0 0 1 6.18 13.298l19.181 172.163a22.847 22.847 0 0 1-5.105 17.109l-74.798 90.352Z" stroke="url(#n)" stroke-width="4"/><path opacity=".217" d="M485.038 538.352c-5.824 7.806-15.978 11.072-25.325 8.145l-111.535-34.931a23.178 23.178 0 0 1-13.728-11.593l-77.859-152.951a22.945 22.945 0 0 1-2.131-14.525l26.589-145.571a22.835 22.835 0 0 1 15.495-17.635l96.505-31.038c8.035-2.584 16.867-.568 23.009 5.252l107.954 102.301a23.062 23.062 0 0 1 6.901 12.99l27.837 169.039a22.824 22.824 0 0 1-4.221 17.366l-69.491 93.151Z" stroke="url(#o)" stroke-width="4"/><path opacity=".232" d="M503.98 534.687c-5.404 8.065-15.343 11.841-24.811 9.427l-112.291-28.632a23.204 23.204 0 0 1-14.353-10.859l-84.961-146.976a22.928 22.928 0 0 1-2.896-14.433l18.908-145.165a22.812 22.812 0 0 1 14.546-18.379l94.035-35.73c7.879-2.994 16.793-1.449 23.234 4.025l112.184 95.355a23.076 23.076 0 0 1 7.605 12.644l36.218 165.496a22.803 22.803 0 0 1-3.325 17.576l-64.093 95.651Z" stroke="url(#p)" stroke-width="4"/><path opacity=".246" d="M522.468 530.586c-4.973 8.302-14.671 12.576-24.232 10.679l-112.688-22.353a23.226 23.226 0 0 1-14.938-10.091l-91.649-140.69a22.918 22.918 0 0 1-3.655-14.301l11.343-144.367a22.79 22.79 0 0 1 13.56-19.073l91.334-40.251c7.702-3.395 16.674-2.325 23.394 2.788l115.977 88.256a23.092 23.092 0 0 1 8.292 12.259l44.302 161.554a22.783 22.783 0 0 1-2.419 17.741l-58.621 97.849Z" stroke="url(#q)" stroke-width="4"/><path opacity=".261" d="M540.482 526.079c-4.533 8.516-13.965 13.273-23.59 11.897l-112.731-16.113a23.247 23.247 0 0 1-15.481-9.292l-97.907-134.118a22.908 22.908 0 0 1-4.409-14.131l3.913-143.186c.229-8.372 5.037-15.932 12.542-19.717l88.414-44.591c7.504-3.784 16.509-3.192 23.486 1.546l119.331 81.03a23.097 23.097 0 0 1 8.958 11.836l52.071 157.235a22.757 22.757 0 0 1-1.505 17.859l-53.092 99.745Z" stroke="url(#r)" stroke-width="4"/><path opacity=".275" d="M558.004 521.195c-4.083 8.708-13.226 13.933-22.886 13.079l-112.425-9.932a23.258 23.258 0 0 1-15.982-8.463L302.988 388.59a22.899 22.899 0 0 1-5.154-13.92l-3.363-141.638c-.199-8.359 4.206-16.141 11.493-20.305l85.287-48.74c7.286-4.164 16.298-4.049 23.512.301l122.241 73.702a23.102 23.102 0 0 1 9.602 11.378l59.507 152.558a22.74 22.74 0 0 1-.586 17.931l-47.523 101.338Z" stroke="url(#s)" stroke-width="4"/><path opacity=".29" d="M575.017 515.968c-3.626 8.876-12.455 14.551-22.122 14.22l-111.777-3.828a23.272 23.272 0 0 1-16.436-7.607l-109.09-120.23a22.896 22.896 0 0 1-5.889-13.672L299.237 245.12c-.623-8.324 3.368-16.309 10.418-20.84l81.964-52.687c7.049-4.531 16.042-4.893 23.471-.943l124.706 66.297a23.11 23.11 0 0 1 10.223 10.886l66.594 147.547a22.73 22.73 0 0 1 .335 17.956l-41.931 102.632Z" stroke="url(#t)" stroke-width="4"/><path opacity=".304" d="M591.508 510.427c-3.163 9.021-11.655 15.129-21.301 15.319l-110.795 2.18a23.286 23.286 0 0 1-16.843-6.727L328.571 408.231a22.897 22.897 0 0 1-6.611-13.385l-17.378-137.482c-1.045-8.268 2.523-16.433 9.317-21.319l78.459-56.424c6.794-4.886 15.742-5.722 23.364-2.183l126.726 58.844a23.12 23.12 0 0 1 10.818 10.36l73.316 142.224a22.718 22.718 0 0 1 1.259 17.935l-36.333 103.626Z" stroke="url(#u)" stroke-width="4"/><path opacity=".319" d="M607.464 504.607c-2.694 9.142-10.829 15.663-20.424 16.37l-109.487 8.075a23.296 23.296 0 0 1-17.203-5.824L341.911 417.696a22.896 22.896 0 0 1-7.32-13.061l-24.083-134.904c-1.463-8.191 1.675-16.514 8.195-21.74l74.786-59.944c6.52-5.227 15.397-6.534 23.188-3.415l128.304 51.366a23.112 23.112 0 0 1 11.385 9.802l79.662 136.613a22.706 22.706 0 0 1 2.179 17.868l-30.743 104.326Z" stroke="url(#v)" stroke-width="4"/><path opacity=".333" d="M622.875 498.539c-2.221 9.239-9.979 16.153-19.493 17.373l-107.863 13.839a23.302 23.302 0 0 1-17.514-4.903l-122.41-97.949a22.885 22.885 0 0 1-8.012-12.7l-30.566-132.011c-1.874-8.094.826-16.553 7.055-22.104l70.956-63.24c6.229-5.552 15.011-7.325 22.947-4.634l129.442 43.888a23.115 23.115 0 0 1 11.923 9.215l85.618 130.739a22.701 22.701 0 0 1 3.096 17.754l-25.179 104.733Z" stroke="url(#w)" stroke-width="4"/><path opacity=".348" d="M637.732 492.258c-1.745 9.311-9.105 16.596-18.512 18.323l-105.932 19.456a23.303 23.303 0 0 1-17.776-3.965l-125.906-90.247a22.881 22.881 0 0 1-8.686-12.305l-36.812-128.821c-2.279-7.975-.023-16.547 5.898-22.408l66.987-66.305c5.921-5.861 14.581-8.094 22.638-5.838l130.145 36.437a23.123 23.123 0 0 1 12.432 8.598l91.174 124.625a22.702 22.702 0 0 1 4.005 17.595l-19.655 104.855Z" stroke="url(#x)" stroke-width="4"/><path opacity=".362" d="M652.03 485.795c-1.268 9.359-8.212 16.992-17.483 19.219l-103.707 24.91a23.306 23.306 0 0 1-17.987-3.013l-128.927-82.454a22.885 22.885 0 0 1-9.341-11.875l-42.806-125.349c-2.676-7.837-.868-16.499 4.729-22.652l62.89-69.135c5.597-6.153 14.11-8.839 22.265-7.023l130.417 29.036a23.12 23.12 0 0 1 12.909 7.954l96.321 118.298a22.7 22.7 0 0 1 4.907 17.39L652.03 485.795Z" stroke="url(#y)" stroke-width="4"/><path opacity=".377" d="M665.765 479.186c-.791 9.382-7.302 17.34-16.409 20.056l-101.201 30.186a23.297 23.297 0 0 1-18.145-2.049l-131.472-74.598a22.89 22.89 0 0 1-9.975-11.413l-48.537-121.612c-3.065-7.68-1.708-16.408 3.55-22.835l58.679-71.725c5.258-6.428 13.601-9.556 21.828-8.185l130.268 21.709a23.12 23.12 0 0 1 13.353 7.284l101.052 111.781a22.705 22.705 0 0 1 5.797 17.142l-8.788 104.259Z" stroke="url(#z)" stroke-width="4"/><path opacity=".391" d="M678.932 472.462c-.314 9.381-6.376 17.639-15.292 20.834l-98.424 35.271a23.291 23.291 0 0 1-18.253-1.078l-133.542-66.707a22.877 22.877 0 0 1-10.586-10.919l-53.994-117.627c-3.444-7.503-2.541-16.274 2.365-22.958l54.369-74.071c4.906-6.683 13.054-10.245 21.328-9.321l129.705 14.48a23.111 23.111 0 0 1 13.763 6.592l105.361 105.1a22.716 22.716 0 0 1 6.675 16.85l-3.475 103.554Z" stroke="url(#A)" stroke-width="4"/><path opacity=".406" d="M691.535 465.657c.159 9.355-5.439 17.887-14.138 21.549l-95.392 40.151a23.283 23.283 0 0 1-18.308-.1l-135.141-58.808a22.894 22.894 0 0 1-11.174-10.394l-59.165-113.414c-3.812-7.308-3.363-16.099 1.177-23.019l49.975-76.171c4.54-6.92 12.47-10.902 20.766-10.427l128.738 7.371a23.107 23.107 0 0 1 14.138 5.877l109.243 98.282a22.725 22.725 0 0 1 7.538 16.514l1.743 102.589Z" stroke="url(#B)" stroke-width="4"/><path opacity=".42" d="M703.573 458.805c.629 9.305-4.492 18.084-12.948 22.197l-92.119 44.814a23.26 23.26 0 0 1-18.309.882l-136.274-50.929a22.9 22.9 0 0 1-11.737-9.839l-64.042-108.989c-4.169-7.096-4.173-15.882-.011-23.019l45.51-78.023c4.162-7.136 11.852-11.525 20.145-11.499l127.378.403a23.102 23.102 0 0 1 14.477 5.141l112.696 91.351a22.741 22.741 0 0 1 8.383 16.137l6.851 101.373Z" stroke="url(#C)" stroke-width="4"/><path opacity=".435" d="M715.05 451.936c1.094 9.231-3.539 18.23-11.726 22.78l-88.619 49.249a23.247 23.247 0 0 1-18.26 1.864L459.5 482.733a22.903 22.903 0 0 1-12.273-9.256L378.61 369.104c-4.514-6.866-4.97-15.624-1.196-22.956l40.988-79.625c3.774-7.332 11.201-12.115 19.466-12.536l125.639-6.401a23.096 23.096 0 0 1 14.78 4.387l115.718 84.333a22.759 22.759 0 0 1 9.209 15.717l11.836 99.913Z" stroke="url(#D)" stroke-width="4"/><path opacity=".449" d="M725.973 445.084c1.551 9.132-2.583 18.324-10.478 23.293l-84.907 53.445a23.227 23.227 0 0 1-18.157 2.844l-137.164-35.334a22.907 22.907 0 0 1-12.782-8.647l-72.883-99.583a22.792 22.792 0 0 1-2.373-22.832l36.424-80.978c3.376-7.506 10.519-12.666 18.73-13.532l123.533-13.023a23.09 23.09 0 0 1 15.045 3.617l118.309 77.253a22.778 22.778 0 0 1 10.014 15.258l16.689 98.219Z" stroke="url(#E)" stroke-width="4"/><path opacity=".464" d="M736.348 438.279c2.002 9.011-1.626 18.365-9.206 23.736l-81 57.393a23.203 23.203 0 0 1-18.001 3.818l-136.94-27.669a22.921 22.921 0 0 1-13.263-8.011l-76.833-94.639a22.818 22.818 0 0 1-3.542-22.648l31.832-82.081c2.97-7.657 9.809-13.178 17.942-14.484l121.075-19.443a23.084 23.084 0 0 1 15.272 2.831l120.471 70.137a22.797 22.797 0 0 1 10.796 14.759l21.397 96.301Z" stroke="url(#F)" stroke-width="4"/><path opacity=".478" d="M746.184 431.551c2.443 8.866-.671 18.355-7.913 24.107l-76.914 61.085a23.18 23.18 0 0 1-17.793 4.785L507.28 501.402a22.93 22.93 0 0 1-13.713-7.351l-80.465-89.56a22.838 22.838 0 0 1-4.696-22.402l27.225-82.936c2.556-7.788 9.071-13.651 17.102-15.392l118.28-25.641a23.075 23.075 0 0 1 15.46 2.031L708.68 323.16a22.822 22.822 0 0 1 11.554 14.223l25.95 94.168Z" stroke="url(#G)" stroke-width="4"/><path opacity=".493" d="M755.493 424.931c2.874 8.699.277 18.293-6.606 24.404l-72.664 64.514a23.15 23.15 0 0 1-17.533 5.741l-135.207-12.727a22.938 22.938 0 0 1-14.133-6.669l-83.774-84.365a22.861 22.861 0 0 1-5.833-22.097l22.615-83.545a23.14 23.14 0 0 1 16.215-16.25l115.166-31.602a23.065 23.065 0 0 1 15.608 1.22l123.522 55.893a22.85 22.85 0 0 1 12.284 13.65l30.34 91.833Z" stroke="url(#H)" stroke-width="4"/><path opacity=".507" d="M764.287 418.446c3.294 8.511 1.217 18.179-5.288 24.628l-68.268 67.672a23.127 23.127 0 0 1-17.222 6.685l-133.723-5.498a22.951 22.951 0 0 1-14.521-5.963l-86.758-79.074a22.888 22.888 0 0 1-6.951-21.734l18.019-83.91a23.115 23.115 0 0 1 15.281-17.056l111.75-37.309a23.044 23.044 0 0 1 15.716.399L716.743 316.1a22.879 22.879 0 0 1 12.987 13.041l34.557 89.305Z" stroke="url(#I)" stroke-width="4"/><path opacity=".522" d="M772.58 412.125c3.7 8.301 2.146 18.015-3.964 24.778l-63.741 70.553a23.095 23.095 0 0 1-16.862 7.613l-131.845 1.543a22.961 22.961 0 0 1-14.878-5.237l-89.415-73.707a22.914 22.914 0 0 1-8.046-21.312l13.447-84.034a23.086 23.086 0 0 1 14.305-17.808l108.05-42.749a23.037 23.037 0 0 1 15.784-.431l124.911 41.796a22.905 22.905 0 0 1 13.659 12.397l38.595 86.598Z" stroke="url(#J)" stroke-width="4"/><path opacity=".536" d="M780.388 405.993c4.092 8.071 3.059 17.801-2.639 24.853l-59.102 73.156a23.064 23.064 0 0 1-16.449 8.523l-129.593 8.372a22.975 22.975 0 0 1-15.2-4.493l-91.747-68.279a22.945 22.945 0 0 1-9.114-20.835l8.912-83.921a23.057 23.057 0 0 1 13.29-18.504l104.085-47.906a23.024 23.024 0 0 1 15.811-1.267l125.002 34.859a22.936 22.936 0 0 1 14.3 11.722l42.444 83.72Z" stroke="url(#K)" stroke-width="4"/><path opacity=".551" d="M787.727 400.077a23 23 0 0 1-1.315 24.853l-54.368 75.474a23.03 23.03 0 0 1-15.989 9.412l-126.981 14.972a22.986 22.986 0 0 1-15.487-3.73l-93.755-62.814a22.969 22.969 0 0 1-10.151-20.302l4.425-83.576a23.031 23.031 0 0 1 12.239-19.141l99.875-52.769a23.013 23.013 0 0 1 15.796-2.108l124.704 28.028a22.973 22.973 0 0 1 14.908 11.015l46.099 80.686Z" stroke="url(#L)" stroke-width="4"/><path opacity=".565" d="M794.617 394.4a23.002 23.002 0 0 1 0 24.779l-49.555 77.506a22.997 22.997 0 0 1-15.481 10.278l-124.027 21.323a23.006 23.006 0 0 1-15.74-2.951l-95.439-57.328a23 23 0 0 1-11.157-19.716v-83.003a23.001 23.001 0 0 1 11.157-19.717l95.439-57.327a22.995 22.995 0 0 1 15.74-2.951l124.027 21.322a22.997 22.997 0 0 1 15.481 10.278l49.555 77.507Z" stroke="url(#M)" stroke-width="4"/><path opacity=".58" d="M801.075 388.984a23 23 0 0 1 1.304 24.632l-44.68 79.251a22.968 22.968 0 0 1-14.925 11.119l-120.752 27.406a23.011 23.011 0 0 1-15.957-2.156l-96.804-51.838a23.03 23.03 0 0 1-12.127-19.081l-4.353-82.207a22.974 22.974 0 0 1 10.046-20.231l90.8-61.57a22.991 22.991 0 0 1 15.641-3.796l122.985 14.763a23.033 23.033 0 0 1 16.018 9.514l52.804 74.194Z" stroke="url(#N)" stroke-width="4"/><path opacity=".594" d="M807.124 383.852a23 23 0 0 1 2.592 24.411l-39.761 80.708a22.94 22.94 0 0 1-14.325 11.931l-117.174 33.209a23.027 23.027 0 0 1-16.137-1.348l-97.855-46.364a23.057 23.057 0 0 1-13.058-18.395l-8.622-81.196a22.943 22.943 0 0 1 8.909-20.681l85.978-65.488a22.976 22.976 0 0 1 15.501-4.641l121.589 8.37a23.064 23.064 0 0 1 16.518 8.722l55.845 70.762Z" stroke="url(#O)" stroke-width="4"/><path opacity=".609" d="M812.784 379.022c5.805 6.651 7.304 16.02 3.86 24.121l-34.815 81.877a22.905 22.905 0 0 1-13.679 12.712l-113.316 38.715a23.039 23.039 0 0 1-16.278-.528l-98.597-40.922a23.086 23.086 0 0 1-13.948-17.663l-12.797-79.975a22.912 22.912 0 0 1 7.751-21.065l80.996-69.077a22.958 22.958 0 0 1 15.316-5.482l119.857 2.16a23.095 23.095 0 0 1 16.978 7.906l58.672 67.221Z" stroke="url(#P)" stroke-width="4"/><path opacity=".623" d="M818.079 374.513c6.091 6.321 8.07 15.534 5.102 23.761l-29.857 82.759a22.876 22.876 0 0 1-12.991 13.461l-109.198 43.912a23.052 23.052 0 0 1-16.382.302l-99.034-35.529a23.112 23.112 0 0 1-14.796-16.887l-16.867-78.55a22.887 22.887 0 0 1 6.576-21.384l75.873-72.329a22.949 22.949 0 0 1 15.091-6.319l117.801-3.848a23.125 23.125 0 0 1 17.398 7.067l61.284 63.584Z" stroke="url(#Q)" stroke-width="4"/><path opacity=".638" d="M823.03 370.343c6.359 5.977 8.804 15.009 6.317 23.333l-24.906 83.357a22.846 22.846 0 0 1-12.26 14.175l-104.843 48.786a23.066 23.066 0 0 1-16.447 1.142l-99.176-30.201a23.137 23.137 0 0 1-15.596-16.071l-20.825-76.929a22.86 22.86 0 0 1 5.389-21.636l70.632-75.239a22.938 22.938 0 0 1 14.821-7.151l115.44-9.638a23.155 23.155 0 0 1 17.778 6.208l63.676 59.864Z" stroke="url(#R)" stroke-width="4"/><path opacity=".652" d="M827.664 366.526c6.604 5.623 9.501 14.448 7.498 22.839l-19.976 83.675a22.817 22.817 0 0 1-11.491 14.851L703.422 541.22a23.08 23.08 0 0 1-16.472 1.99l-99.03-24.955c-7.701-1.941-13.878-7.689-16.348-15.215l-24.659-75.121a22.838 22.838 0 0 1 4.191-21.821l65.298-77.805a22.926 22.926 0 0 1 14.508-7.973l112.791-15.196a23.184 23.184 0 0 1 18.115 5.329l65.848 56.073Z" stroke="url(#S)" stroke-width="4"/><path opacity=".667" d="M832.005 363.075c6.828 5.259 10.161 13.854 8.642 22.284l-15.083 83.715a22.793 22.793 0 0 1-10.683 15.487l-95.513 57.531a23.083 23.083 0 0 1-16.456 2.844l-98.605-19.804c-7.761-1.559-14.198-6.966-17.051-14.324l-28.361-73.132a22.816 22.816 0 0 1 2.988-21.938l59.889-80.026a22.915 22.915 0 0 1 14.153-8.786l109.871-20.506a23.21 23.21 0 0 1 18.409 4.433l67.8 52.222Z" stroke="url(#T)" stroke-width="4"/><path opacity=".681" d="M836.077 360.004c7.03 4.886 10.782 13.227 9.746 21.668l-10.243 83.482a22.772 22.772 0 0 1-9.84 16.082l-90.584 61.386a23.097 23.097 0 0 1-16.4 3.702l-97.91-14.765c-7.801-1.176-14.477-6.23-17.702-13.4l-31.923-70.971a22.795 22.795 0 0 1 1.784-21.988l54.429-81.9a22.905 22.905 0 0 1 13.754-9.587l106.7-25.557a23.232 23.232 0 0 1 18.658 3.523l69.531 48.325Z" stroke="url(#U)" stroke-width="4"/><path opacity=".696" d="M839.907 357.323c7.21 4.506 11.363 12.572 10.807 20.995l-5.472 82.982a22.746 22.746 0 0 1-8.962 16.632l-85.513 64.888a23.104 23.104 0 0 1-16.302 4.562l-96.956-9.848c-7.82-.794-14.715-5.484-18.299-12.447l-35.338-68.648a22.782 22.782 0 0 1 .583-21.97l48.94-83.429a22.9 22.9 0 0 1 13.312-10.373l103.297-30.337a23.246 23.246 0 0 1 18.862 2.599l71.041 44.394Z" stroke="url(#V)" stroke-width="4"/><path opacity=".71" d="M843.521 355.04c7.368 4.119 11.902 11.891 11.822 20.267l-.784 82.223a22.733 22.733 0 0 1-8.053 17.137l-80.322 68.031a23.108 23.108 0 0 1-16.161 5.424l-95.755-5.068c-7.819-.414-14.912-4.731-18.841-11.467l-38.597-66.172c-3.929-6.736-4.16-14.975-.612-21.884l43.442-84.617a22.896 22.896 0 0 1 12.827-11.142l99.683-34.837a23.27 23.27 0 0 1 19.02 1.665l72.331 40.44Z" stroke="url(#W)" stroke-width="4"/><path opacity=".725" d="M846.945 353.162c7.504 3.729 12.398 11.188 12.787 19.49l3.808 81.21a22.72 22.72 0 0 1-7.115 17.594L781.39 542.27a23.113 23.113 0 0 1-15.978 6.285l-94.317-.437c-7.799-.036-15.068-3.972-19.328-10.465l-41.694-63.55c-4.26-6.493-4.936-14.667-1.797-21.733l37.959-85.465a22.88 22.88 0 0 1 12.299-11.892l95.876-39.048a23.288 23.288 0 0 1 19.132.723l73.403 36.474Z" stroke="url(#X)" stroke-width="4"/><path opacity=".739" d="M850.206 351.696c7.617 3.335 12.85 10.463 13.7 18.665l8.288 79.952a22.702 22.702 0 0 1-6.149 18.001l-69.676 73.237a23.128 23.128 0 0 1-15.753 7.141l-92.656 4.035c-7.759.338-15.181-3.21-19.756-9.443L623.58 482.49c-4.575-6.233-5.69-14.317-2.968-21.516l32.509-85.978a22.879 22.879 0 0 1 11.73-12.622l91.899-42.961a23.295 23.295 0 0 1 19.196-.226l74.26 32.509Z" stroke="url(#Y)" stroke-width="4"/><path opacity=".754" d="M853.33 350.645c7.708 2.939 13.257 9.722 14.559 17.796l12.645 78.458a22.693 22.693 0 0 1-5.159 18.357l-64.271 75.298a23.13 23.13 0 0 1-15.483 7.993l-90.783 8.337c-7.7.707-15.255-2.447-20.128-8.405l-47.379-57.912c-4.874-5.958-6.421-13.928-4.121-21.236l27.113-86.163a22.875 22.875 0 0 1 11.119-13.328l87.772-46.572a23.304 23.304 0 0 1 19.213-1.178l74.903 28.555Z" stroke="url(#Z)" stroke-width="4"/><path opacity=".768" d="M856.344 350.012c7.777 2.542 13.619 8.965 15.361 16.887l16.866 76.736a22.692 22.692 0 0 1-4.147 18.66l-58.841 77a23.13 23.13 0 0 1-15.17 8.839l-88.714 12.459c-7.622 1.071-15.286-1.686-20.441-7.353l-49.956-54.917c-5.155-5.667-7.124-13.5-5.252-20.891l21.792-86.028a22.875 22.875 0 0 1 10.466-14.009l83.516-49.875a23.313 23.313 0 0 1 19.182-2.132l75.338 24.624Z" stroke="url(#aa)" stroke-width="4"/><path opacity=".783" d="M859.274 349.798c7.824 2.146 13.937 8.197 16.105 15.941l20.938 74.797a22.691 22.691 0 0 1-3.115 18.91l-53.411 78.346c-3.441 5.047-8.772 8.529-14.813 9.674l-86.46 16.395c-7.526 1.428-15.277-.93-20.696-6.293l-52.349-51.816c-5.418-5.364-7.8-13.036-6.358-20.486l16.564-85.58c1.157-5.98 4.675-11.256 9.774-14.662l79.151-52.868a23.315 23.315 0 0 1 19.104-3.083l75.566 20.725Z" stroke="url(#ab)" stroke-width="4"/><path opacity=".797" d="M862.145 350.001c7.85 1.752 14.209 7.42 16.79 14.964l24.851 72.651a22.686 22.686 0 0 1-2.067 19.102l-48.003 79.343c-3.189 5.27-8.382 9.053-14.413 10.498l-84.035 20.136c-7.412 1.776-15.229-.18-20.892-5.227l-54.555-48.622c-5.664-5.047-8.446-12.538-7.436-20.02l11.447-84.829a22.87 22.87 0 0 1 9.042-15.285l74.701-55.548a23.314 23.314 0 0 1 18.977-4.032l75.593 16.869Z" stroke="url(#ac)" stroke-width="4"/><path opacity=".812" d="M864.986 350.621c7.853 1.36 14.435 6.636 17.412 13.956l28.595 70.31a22.695 22.695 0 0 1-1.007 19.239l-42.639 79.994c-2.923 5.483-7.963 9.563-13.968 11.309l-81.455 23.674c-7.282 2.117-15.141.563-21.031-4.158l-56.57-45.343c-5.889-4.721-9.059-12.007-8.481-19.497l6.46-83.787c.476-6.177 3.46-11.905 8.271-15.875l70.185-57.915a23.31 23.31 0 0 1 18.803-4.975l75.425 13.068Z" stroke="url(#ad)" stroke-width="4"/><path opacity=".826" d="M867.819 351.651c7.837.974 14.616 5.85 17.974 12.926l32.158 67.783a22.705 22.705 0 0 1 .065 19.318l-37.342 80.309c-2.643 5.684-7.514 10.056-13.481 12.103l-78.733 27.007c-7.134 2.447-15.014 1.293-21.11-3.09l-58.392-41.993c-6.095-4.383-9.639-11.445-9.492-18.917l1.619-82.464a22.871 22.871 0 0 1 7.464-16.43l65.624-59.97a23.3 23.3 0 0 1 18.581-5.908l75.065 9.326Z" stroke="url(#ae)" stroke-width="4"/><path opacity=".841" d="M870.671 353.089c7.8.592 14.753 5.061 18.472 11.874l35.533 65.085a22.716 22.716 0 0 1 1.143 19.337l-32.132 80.296c-2.35 5.872-7.035 10.532-12.95 12.88l-75.884 30.126c-6.971 2.768-14.85 2.013-21.132-2.025l-60.018-38.58c-6.282-4.038-10.184-10.856-10.465-18.285l-3.06-80.872c-.239-6.303 2.157-12.435 6.62-16.948l61.039-61.715a23.292 23.292 0 0 1 18.312-6.831l74.522 5.658Z" stroke="url(#af)" stroke-width="4"/><path opacity=".855" d="M873.566 354.926c7.744.218 14.844 4.275 18.906 10.805l38.711 62.228a22.723 22.723 0 0 1 2.225 19.297l-27.028 79.965c-2.044 6.047-6.528 10.987-12.377 13.637l-72.923 33.03c-6.792 3.077-14.65 2.716-21.098-.968l-61.446-35.116a22.766 22.766 0 0 1-11.396-17.601l-7.563-79.026a22.882 22.882 0 0 1 5.743-17.427l56.449-63.152a23.276 23.276 0 0 1 17.997-7.741l73.8 2.069Z" stroke="url(#ag)" stroke-width="4"/><path opacity=".87" d="M876.527 357.156c7.669-.151 14.893 3.493 19.277 9.722l41.685 59.224a22.746 22.746 0 0 1 3.308 19.197l-22.053 79.328c-1.725 6.207-5.993 11.421-11.761 14.37l-69.864 35.716c-6.6 3.375-14.415 3.404-21.008.079l-62.676-31.611a22.784 22.784 0 0 1-12.284-16.869l-11.873-76.939a22.892 22.892 0 0 1 4.831-17.865l51.876-64.287a23.259 23.259 0 0 1 17.635-8.635l72.907-1.43Z" stroke="url(#ah)" stroke-width="4"/><path opacity=".884" d="M879.578 359.767c7.575-.509 14.899 2.718 19.585 8.631l44.446 56.087a22.764 22.764 0 0 1 4.388 19.037l-17.221 78.397a23.105 23.105 0 0 1-11.104 15.079l-66.722 38.181c-6.395 3.659-14.146 4.072-20.863 1.112l-63.709-28.077a22.805 22.805 0 0 1-13.125-16.09l-15.98-74.628a22.9 22.9 0 0 1 3.89-18.258l47.336-65.125a23.24 23.24 0 0 1 17.23-9.511l71.849-4.835Z" stroke="url(#ai)" stroke-width="4"/><path opacity=".899" d="M882.74 362.751c7.464-.86 14.862 1.951 19.828 7.534l46.992 52.829a22.788 22.788 0 0 1 5.463 18.816l-12.553 77.186a23.095 23.095 0 0 1-10.408 15.76l-63.511 40.425a23.176 23.176 0 0 1-20.665 2.129l-64.541-24.523a22.824 22.824 0 0 1-13.918-15.269l-19.871-72.106a22.909 22.909 0 0 1 2.92-18.605l42.85-65.675a23.214 23.214 0 0 1 16.779-10.365l70.635-8.136Z" stroke="url(#aj)" stroke-width="4"/><path opacity=".913" d="M886.035 366.094c7.336-1.199 14.785 1.196 20.008 6.435l49.316 49.467a22.814 22.814 0 0 1 6.527 18.534l-8.064 75.709a23.078 23.078 0 0 1-9.671 16.412l-60.247 42.447a23.157 23.157 0 0 1-20.414 3.127l-65.177-20.962a22.844 22.844 0 0 1-14.658-14.407l-23.535-69.391a22.922 22.922 0 0 1 1.922-18.905l38.434-65.941a23.185 23.185 0 0 1 16.287-11.197l69.272-11.328Z" stroke="url(#ak)" stroke-width="4"/><path opacity=".928" d="M889.483 369.784c7.193-1.528 14.669.455 20.125 5.338l51.414 46.012a22.843 22.843 0 0 1 7.579 18.192l-3.769 73.982a23.071 23.071 0 0 1-8.897 17.033l-56.942 44.247a23.132 23.132 0 0 1-20.113 4.104l-65.616-17.403a22.87 22.87 0 0 1-15.346-13.508l-26.962-66.501a22.932 22.932 0 0 1 .899-19.154l34.108-65.935a23.157 23.157 0 0 1 15.752-12.004l67.768-14.403Z" stroke="url(#al)" stroke-width="4"/><path opacity=".942" d="M893.104 373.807a23.001 23.001 0 0 1 20.18 4.246l53.283 42.48a22.872 22.872 0 0 1 8.613 17.789l.318 72.021a23.058 23.058 0 0 1-8.085 17.62l-53.612 45.828a23.103 23.103 0 0 1-19.762 5.056l-65.863-13.857a22.892 22.892 0 0 1-15.976-12.575l-30.145-63.45a22.94 22.94 0 0 1-.146-19.352l29.885-65.666a23.129 23.129 0 0 1 15.178-12.784l66.132-17.356Z" stroke="url(#am)" stroke-width="4"/><path opacity=".957" d="M896.917 378.148a23 23 0 0 1 20.173 3.162l54.921 38.884a22.901 22.901 0 0 1 9.627 17.328l4.184 69.842a23.048 23.048 0 0 1-7.239 18.172l-50.268 47.192a23.083 23.083 0 0 1-19.366 5.981l-65.917-10.334a22.919 22.919 0 0 1-16.55-11.612l-33.075-60.258a22.957 22.957 0 0 1-1.211-19.497l25.783-65.144a23.1 23.1 0 0 1 14.565-13.535l64.373-20.181Z" stroke="url(#an)" stroke-width="4"/><path opacity=".971" d="M900.937 382.789a23 23 0 0 1 20.105 2.092l56.327 35.238a22.931 22.931 0 0 1 10.618 16.807l7.816 67.465a23.031 23.031 0 0 1-6.358 18.687l-46.926 48.341a23.057 23.057 0 0 1-18.923 6.877l-65.783-6.844a22.945 22.945 0 0 1-17.065-10.62l-35.747-56.943a22.971 22.971 0 0 1-2.294-19.587l21.816-64.382a23.069 23.069 0 0 1 13.916-14.255l62.498-22.876Z" stroke="url(#ao)" stroke-width="4"/><path opacity=".986" d="M905.182 387.714a23 23 0 0 1 19.978 1.037l57.5 31.558a22.967 22.967 0 0 1 11.582 16.229l11.208 64.905c1.18 6.88-.82 13.93-5.45 19.163l-43.597 49.281a23.024 23.024 0 0 1-18.437 7.74l-65.466-3.396a22.973 22.973 0 0 1-17.519-9.605l-38.154-53.522a22.985 22.985 0 0 1-3.392-19.621l17.997-63.391a23.036 23.036 0 0 1 13.232-14.942l60.518-25.436Z" stroke="url(#ap)" stroke-width="4"/><path d="M909.665 392.906a23 23 0 0 1 19.793 0l58.44 27.857a22.984 22.984 0 0 1 12.512 15.594l14.34 62.184a22.98 22.98 0 0 1-4.5 19.598l-40.294 50.015a23.004 23.004 0 0 1-17.911 8.57h-64.967a23 23 0 0 1-17.911-8.57l-40.295-50.015a23.003 23.003 0 0 1-4.502-19.598l14.34-62.184a22.996 22.996 0 0 1 12.515-15.594l58.44-27.857Z" stroke="url(#aq)" stroke-width="4"/><defs><linearGradient id="a" x1="169.515" y1="536.399" x2="382.084" y2="54.053" gradientUnits="userSpaceOnUse"><stop stop-color="#FF1CF7"/><stop offset="1" stop-color="#00F0FF"/></linearGradient><linearGradient id="b" x1="192.215" y1="542.076" x2="377.714" y2="53.869" gradientUnits="userSpaceOnUse"><stop stop-color="#FF1CF7"/><stop offset="1" stop-color="#00F0FF"/></linearGradient><linearGradient id="c" x1="214.944" y1="547.026" x2="373.368" y2="54.438" gradientUnits="userSpaceOnUse"><stop stop-color="#FF1CF7"/><stop offset="1" stop-color="#00F0FF"/></linearGradient><linearGradient id="d" x1="237.662" y1="551.255" x2="369.082" y2="55.747" gradientUnits="userSpaceOnUse"><stop stop-color="#FF1CF7"/><stop offset="1" stop-color="#00F0FF"/></linearGradient><linearGradient id="e" x1="260.327" y1="554.769" x2="364.89" y2="57.78" gradientUnits="userSpaceOnUse"><stop stop-color="#FF1CF7"/><stop offset="1" stop-color="#00F0FF"/></linearGradient><linearGradient id="f" x1="282.901" y1="557.578" x2="360.826" y2="60.522" gradientUnits="userSpaceOnUse"><stop stop-color="#FF1CF7"/><stop offset="1" stop-color="#00F0FF"/></linearGradient><linearGradient id="g" x1="305.347" y1="559.694" x2="356.921" y2="63.957" gradientUnits="userSpaceOnUse"><stop stop-color="#FF1CF7"/><stop offset="1" stop-color="#00F0FF"/></linearGradient><linearGradient id="h" x1="327.627" y1="561.132" x2="353.205" y2="68.067" gradientUnits="userSpaceOnUse"><stop stop-color="#FF1CF7"/><stop offset="1" stop-color="#00F0FF"/></linearGradient><linearGradient id="i" x1="349.706" y1="561.905" x2="349.706" y2="72.836" gradientUnits="userSpaceOnUse"><stop stop-color="#FF1CF7"/><stop offset="1" stop-color="#00F0FF"/></linearGradient><linearGradient id="j" x1="371.547" y1="562.033" x2="346.45" y2="78.246" gradientUnits="userSpaceOnUse"><stop stop-color="#FF1CF7"/><stop offset="1" stop-color="#00F0FF"/></linearGradient><linearGradient id="k" x1="393.118" y1="561.534" x2="343.467" y2="84.277" gradientUnits="userSpaceOnUse"><stop stop-color="#FF1CF7"/><stop offset="1" stop-color="#00F0FF"/></linearGradient><linearGradient id="l" x1="414.387" y1="560.429" x2="340.779" y2="90.911" gradientUnits="userSpaceOnUse"><stop stop-color="#FF1CF7"/><stop offset="1" stop-color="#00F0FF"/></linearGradient><linearGradient id="m" x1="435.323" y1="558.741" x2="338.412" y2="98.129" gradientUnits="userSpaceOnUse"><stop stop-color="#FF1CF7"/><stop offset="1" stop-color="#00F0FF"/></linearGradient><linearGradient id="n" x1="455.897" y1="556.494" x2="336.391" y2="105.91" gradientUnits="userSpaceOnUse"><stop stop-color="#FF1CF7"/><stop offset="1" stop-color="#00F0FF"/></linearGradient><linearGradient id="o" x1="476.081" y1="553.713" x2="334.738" y2="114.234" gradientUnits="userSpaceOnUse"><stop stop-color="#FF1CF7"/><stop offset="1" stop-color="#00F0FF"/></linearGradient><linearGradient id="p" x1="495.85" y1="550.425" x2="333.477" y2="123.081" gradientUnits="userSpaceOnUse"><stop stop-color="#FF1CF7"/><stop offset="1" stop-color="#00F0FF"/></linearGradient><linearGradient id="q" x1="515.179" y1="546.658" x2="332.629" y2="132.428" gradientUnits="userSpaceOnUse"><stop stop-color="#FF1CF7"/><stop offset="1" stop-color="#00F0FF"/></linearGradient><linearGradient id="r" x1="534.048" y1="542.441" x2="332.216" y2="142.252" gradientUnits="userSpaceOnUse"><stop stop-color="#FF1CF7"/><stop offset="1" stop-color="#00F0FF"/></linearGradient><linearGradient id="s" x1="552.434" y1="537.803" x2="332.259" y2="152.53" gradientUnits="userSpaceOnUse"><stop stop-color="#FF1CF7"/><stop offset="1" stop-color="#00F0FF"/></linearGradient><linearGradient id="t" x1="570.32" y1="532.777" x2="332.78" y2="163.238" gradientUnits="userSpaceOnUse"><stop stop-color="#FF1CF7"/><stop offset="1" stop-color="#00F0FF"/></linearGradient><linearGradient id="u" x1="587.689" y1="527.393" x2="333.797" y2="174.349" gradientUnits="userSpaceOnUse"><stop stop-color="#FF1CF7"/><stop offset="1" stop-color="#00F0FF"/></linearGradient><linearGradient id="v" x1="604.527" y1="521.684" x2="335.329" y2="185.836" gradientUnits="userSpaceOnUse"><stop stop-color="#FF1CF7"/><stop offset="1" stop-color="#00F0FF"/></linearGradient><linearGradient id="w" x1="620.82" y1="515.682" x2="337.396" y2="197.672" gradientUnits="userSpaceOnUse"><stop stop-color="#FF1CF7"/><stop offset="1" stop-color="#00F0FF"/></linearGradient><linearGradient id="x" x1="636.559" y1="509.42" x2="340.013" y2="209.827" gradientUnits="userSpaceOnUse"><stop stop-color="#FF1CF7"/><stop offset="1" stop-color="#00F0FF"/></linearGradient><linearGradient id="y" x1="651.735" y1="502.933" x2="343.197" y2="222.269" gradientUnits="userSpaceOnUse"><stop stop-color="#FF1CF7"/><stop offset="1" stop-color="#00F0FF"/></linearGradient><linearGradient id="z" x1="666.342" y1="496.253" x2="346.963" y2="234.966" gradientUnits="userSpaceOnUse"><stop stop-color="#FF1CF7"/><stop offset="1" stop-color="#00F0FF"/></linearGradient><linearGradient id="A" x1="680.374" y1="489.414" x2="351.321" y2="247.886" gradientUnits="userSpaceOnUse"><stop stop-color="#FF1CF7"/><stop offset="1" stop-color="#00F0FF"/></linearGradient><linearGradient id="B" x1="693.829" y1="482.45" x2="356.284" y2="260.993" gradientUnits="userSpaceOnUse"><stop stop-color="#FF1CF7"/><stop offset="1" stop-color="#00F0FF"/></linearGradient><linearGradient id="C" x1="706.707" y1="475.394" x2="361.861" y2="274.251" gradientUnits="userSpaceOnUse"><stop stop-color="#FF1CF7"/><stop offset="1" stop-color="#00F0FF"/></linearGradient><linearGradient id="D" x1="719.008" y1="468.279" x2="368.057" y2="287.623" gradientUnits="userSpaceOnUse"><stop stop-color="#FF1CF7"/><stop offset="1" stop-color="#00F0FF"/></linearGradient><linearGradient id="E" x1="730.736" y1="461.138" x2="374.879" y2="301.072" gradientUnits="userSpaceOnUse"><stop stop-color="#FF1CF7"/><stop offset="1" stop-color="#00F0FF"/></linearGradient><linearGradient id="F" x1="741.897" y1="454.004" x2="382.327" y2="314.559" gradientUnits="userSpaceOnUse"><stop stop-color="#FF1CF7"/><stop offset="1" stop-color="#00F0FF"/></linearGradient><linearGradient id="G" x1="752.496" y1="446.907" x2="390.4" y2="328.046" gradientUnits="userSpaceOnUse"><stop stop-color="#FF1CF7"/><stop offset="1" stop-color="#00F0FF"/></linearGradient><linearGradient id="H" x1="762.543" y1="439.879" x2="399.096" y2="341.492" gradientUnits="userSpaceOnUse"><stop stop-color="#FF1CF7"/><stop offset="1" stop-color="#00F0FF"/></linearGradient><linearGradient id="I" x1="772.048" y1="432.949" x2="408.407" y2="354.861" gradientUnits="userSpaceOnUse"><stop stop-color="#FF1CF7"/><stop offset="1" stop-color="#00F0FF"/></linearGradient><linearGradient id="J" x1="781.023" y1="426.148" x2="418.325" y2="368.112" gradientUnits="userSpaceOnUse"><stop stop-color="#FF1CF7"/><stop offset="1" stop-color="#00F0FF"/></linearGradient><linearGradient id="K" x1="789.482" y1="419.503" x2="428.838" y2="381.208" gradientUnits="userSpaceOnUse"><stop stop-color="#FF1CF7"/><stop offset="1" stop-color="#00F0FF"/></linearGradient><linearGradient id="L" x1="797.439" y1="413.041" x2="439.93" y2="394.112" gradientUnits="userSpaceOnUse"><stop stop-color="#FF1CF7"/><stop offset="1" stop-color="#00F0FF"/></linearGradient><linearGradient id="M" x1="804.912" y1="406.789" x2="451.584" y2="406.789" gradientUnits="userSpaceOnUse"><stop stop-color="#FF1CF7"/><stop offset="1" stop-color="#00F0FF"/></linearGradient><linearGradient id="N" x1="811.918" y1="400.771" x2="463.78" y2="419.204" gradientUnits="userSpaceOnUse"><stop stop-color="#FF1CF7"/><stop offset="1" stop-color="#00F0FF"/></linearGradient><linearGradient id="O" x1="818.476" y1="395.011" x2="476.494" y2="431.324" gradientUnits="userSpaceOnUse"><stop stop-color="#FF1CF7"/><stop offset="1" stop-color="#00F0FF"/></linearGradient><linearGradient id="P" x1="824.608" y1="389.531" x2="489.703" y2="443.12" gradientUnits="userSpaceOnUse"><stop stop-color="#FF1CF7"/><stop offset="1" stop-color="#00F0FF"/></linearGradient><linearGradient id="Q" x1="830.334" y1="384.352" x2="503.378" y2="454.563" gradientUnits="userSpaceOnUse"><stop stop-color="#FF1CF7"/><stop offset="1" stop-color="#00F0FF"/></linearGradient><linearGradient id="R" x1="835.676" y1="379.493" x2="517.49" y2="465.627" gradientUnits="userSpaceOnUse"><stop stop-color="#FF1CF7"/><stop offset="1" stop-color="#00F0FF"/></linearGradient><linearGradient id="S" x1="840.66" y1="374.972" x2="532.009" y2="476.289" gradientUnits="userSpaceOnUse"><stop stop-color="#FF1CF7"/><stop offset="1" stop-color="#00F0FF"/></linearGradient><linearGradient id="T" x1="845.308" y1="370.805" x2="546.904" y2="486.529" gradientUnits="userSpaceOnUse"><stop stop-color="#FF1CF7"/><stop offset="1" stop-color="#00F0FF"/></linearGradient><linearGradient id="U" x1="849.645" y1="367.007" x2="562.139" y2="496.328" gradientUnits="userSpaceOnUse"><stop stop-color="#FF1CF7"/><stop offset="1" stop-color="#00F0FF"/></linearGradient><linearGradient id="V" x1="853.697" y1="363.59" x2="577.683" y2="505.672" gradientUnits="userSpaceOnUse"><stop stop-color="#FF1CF7"/><stop offset="1" stop-color="#00F0FF"/></linearGradient><linearGradient id="W" x1="857.491" y1="360.568" x2="593.5" y2="514.55" gradientUnits="userSpaceOnUse"><stop stop-color="#FF1CF7"/><stop offset="1" stop-color="#00F0FF"/></linearGradient><linearGradient id="X" x1="861.053" y1="357.948" x2="609.557" y2="522.951" gradientUnits="userSpaceOnUse"><stop stop-color="#FF1CF7"/><stop offset="1" stop-color="#00F0FF"/></linearGradient><linearGradient id="Y" x1="864.409" y1="355.74" x2="625.818" y2="530.869" gradientUnits="userSpaceOnUse"><stop stop-color="#FF1CF7"/><stop offset="1" stop-color="#00F0FF"/></linearGradient><linearGradient id="Z" x1="867.588" y1="353.95" x2="642.25" y2="538.3" gradientUnits="userSpaceOnUse"><stop stop-color="#FF1CF7"/><stop offset="1" stop-color="#00F0FF"/></linearGradient><linearGradient id="aa" x1="870.614" y1="352.582" x2="658.819" y2="545.244" gradientUnits="userSpaceOnUse"><stop stop-color="#FF1CF7"/><stop offset="1" stop-color="#00F0FF"/></linearGradient><linearGradient id="ab" x1="873.518" y1="351.64" x2="675.492" y2="551.701" gradientUnits="userSpaceOnUse"><stop stop-color="#FF1CF7"/><stop offset="1" stop-color="#00F0FF"/></linearGradient><linearGradient id="ac" x1="876.324" y1="351.125" x2="692.238" y2="557.675" gradientUnits="userSpaceOnUse"><stop stop-color="#FF1CF7"/><stop offset="1" stop-color="#00F0FF"/></linearGradient><linearGradient id="ad" x1="879.06" y1="351.038" x2="709.025" y2="563.171" gradientUnits="userSpaceOnUse"><stop stop-color="#FF1CF7"/><stop offset="1" stop-color="#00F0FF"/></linearGradient><linearGradient id="ae" x1="881.752" y1="351.376" x2="725.825" y2="568.197" gradientUnits="userSpaceOnUse"><stop stop-color="#FF1CF7"/><stop offset="1" stop-color="#00F0FF"/></linearGradient><linearGradient id="af" x1="884.427" y1="352.136" x2="742.609" y2="572.762" gradientUnits="userSpaceOnUse"><stop stop-color="#FF1CF7"/><stop offset="1" stop-color="#00F0FF"/></linearGradient><linearGradient id="ag" x1="887.111" y1="353.313" x2="759.35" y2="576.876" gradientUnits="userSpaceOnUse"><stop stop-color="#FF1CF7"/><stop offset="1" stop-color="#00F0FF"/></linearGradient><linearGradient id="ah" x1="889.829" y1="354.901" x2="776.023" y2="580.553" gradientUnits="userSpaceOnUse"><stop stop-color="#FF1CF7"/><stop offset="1" stop-color="#00F0FF"/></linearGradient><linearGradient id="ai" x1="892.604" y1="356.892" x2="792.605" y2="583.804" gradientUnits="userSpaceOnUse"><stop stop-color="#FF1CF7"/><stop offset="1" stop-color="#00F0FF"/></linearGradient><linearGradient id="aj" x1="895.462" y1="359.278" x2="809.072" y2="586.644" gradientUnits="userSpaceOnUse"><stop stop-color="#FF1CF7"/><stop offset="1" stop-color="#00F0FF"/></linearGradient><linearGradient id="ak" x1="898.424" y1="362.047" x2="825.404" y2="589.089" gradientUnits="userSpaceOnUse"><stop stop-color="#FF1CF7"/><stop offset="1" stop-color="#00F0FF"/></linearGradient><linearGradient id="al" x1="901.513" y1="365.187" x2="841.581" y2="591.153" gradientUnits="userSpaceOnUse"><stop stop-color="#FF1CF7"/><stop offset="1" stop-color="#00F0FF"/></linearGradient><linearGradient id="am" x1="904.75" y1="368.687" x2="857.586" y2="592.855" gradientUnits="userSpaceOnUse"><stop stop-color="#FF1CF7"/><stop offset="1" stop-color="#00F0FF"/></linearGradient><linearGradient id="an" x1="908.155" y1="372.531" x2="873.402" y2="594.21" gradientUnits="userSpaceOnUse"><stop stop-color="#FF1CF7"/><stop offset="1" stop-color="#00F0FF"/></linearGradient><linearGradient id="ao" x1="911.747" y1="376.704" x2="889.012" y2="595.235" gradientUnits="userSpaceOnUse"><stop stop-color="#FF1CF7"/><stop offset="1" stop-color="#00F0FF"/></linearGradient><linearGradient id="ap" x1="915.544" y1="381.19" x2="904.403" y2="595.949" gradientUnits="userSpaceOnUse"><stop stop-color="#FF1CF7"/><stop offset="1" stop-color="#00F0FF"/></linearGradient><linearGradient id="aq" x1="919.561" y1="385.973" x2="919.561" y2="596.37" gradientUnits="userSpaceOnUse"><stop stop-color="#FF1CF7"/><stop offset="1" stop-color="#00F0FF"/></linearGradient></defs></svg>