<svg class="vortex" width="842" height="625" viewBox="0 0 842 625" fill="none" xmlns="http://www.w3.org/2000/svg">
<path opacity="0.0144928" d="M187.362 530.288C177.386 532.562 167.129 528.041 162.161 519.182L98.4357 405.555C95.4724 400.271 94.7397 394.025 96.3979 388.182L150.639 197.055C151.947 192.446 154.67 188.351 158.426 185.344L291.932 78.4671C298.683 73.0629 307.887 71.851 315.775 75.3276L417.812 120.295C425.701 123.771 430.949 131.353 431.409 139.935L440.501 309.654C440.756 314.429 439.504 319.171 436.919 323.218L329.718 491.006C326.441 496.135 321.261 499.776 315.312 501.132L187.362 530.288Z" stroke="url(#paint40_linear_58327_796)" stroke-width="4"/>
<defs>
<linearGradient id="paint40_linear_58327_796" x1="169.515" y1="536.399" x2="382.084" y2="54.0528" gradientUnits="userSpaceOnUse">
<stop stop-color="red"/>
<stop offset="1" stop-color="blue"/>
</linearGradient>
</defs>
</svg>